<svg xmlns="http://www.w3.org/2000/svg" viewBox="0 0 625 625" fill="none">
  <defs>
    <linearGradient id="logoGradient" x1="100" y1="100" x2="525" y2="525" gradientUnits="userSpaceOnUse">
      <stop offset="0%" stop-color="#6366f1"/>
      <stop offset="100%" stop-color="#a855f7"/>
    </linearGradient>
  </defs>
  <g fill="url(#logoGradient)" fill-rule="evenodd">
    <path d="M 466.0,133.0 L 455.0,128.0 L 442.0,128.0 L 433.0,132.0 L 426.0,139.0 L 421.0,150.0 L 423.0,170.0 L 381.0,209.0 L 380.0,131.0 L 390.0,126.0 L 400.0,114.0 L 402.0,96.0 L 397.0,84.0 L 385.0,74.0 L 369.0,72.0 L 354.0,79.0 L 348.0,86.0 L 345.0,94.0 L 345.0,109.0 L 349.0,118.0 L 357.0,126.0 L 365.0,129.0 L 367.0,132.0 L 366.0,178.0 L 319.0,134.0 L 321.0,113.0 L 315.0,100.0 L 307.0,93.0 L 299.0,90.0 L 283.0,91.0 L 273.0,97.0 L 269.0,102.0 L 265.0,111.0 L 265.0,125.0 L 270.0,136.0 L 277.0,143.0 L 287.0,148.0 L 286.0,167.0 L 235.0,167.0 L 223.0,153.0 L 213.0,149.0 L 202.0,149.0 L 192.0,153.0 L 184.0,161.0 L 180.0,170.0 L 180.0,184.0 L 182.0,190.0 L 191.0,201.0 L 199.0,205.0 L 212.0,206.0 L 222.0,202.0 L 230.0,195.0 L 236.0,180.0 L 286.0,180.0 L 286.0,218.0 L 255.0,247.0 L 192.0,248.0 L 187.0,247.0 L 182.0,238.0 L 174.0,231.0 L 166.0,228.0 L 154.0,228.0 L 146.0,231.0 L 139.0,237.0 L 133.0,248.0 L 132.0,256.0 L 137.0,273.0 L 149.0,283.0 L 164.0,285.0 L 171.0,283.0 L 180.0,277.0 L 225.0,319.0 L 231.0,321.0 L 269.0,321.0 L 277.0,327.0 L 279.0,333.0 L 278.0,421.0 L 272.0,428.0 L 269.0,429.0 L 237.0,429.0 L 233.0,432.0 L 232.0,439.0 L 236.0,443.0 L 275.0,443.0 L 282.0,440.0 L 288.0,434.0 L 292.0,426.0 L 291.0,320.0 L 283.0,311.0 L 274.0,307.0 L 234.0,307.0 L 199.0,276.0 L 187.0,262.0 L 258.0,261.0 L 265.0,258.0 L 300.0,223.0 L 300.0,148.0 L 309.0,144.0 L 367.0,200.0 L 367.0,220.0 L 316.0,268.0 L 312.0,278.0 L 312.0,421.0 L 316.0,433.0 L 322.0,439.0 L 331.0,443.0 L 483.0,444.0 L 450.0,468.0 L 175.0,468.0 L 169.0,463.0 L 168.0,460.0 L 168.0,337.0 L 166.0,333.0 L 137.0,305.0 L 132.0,304.0 L 129.0,308.0 L 129.0,500.0 L 131.0,504.0 L 135.0,506.0 L 462.0,506.0 L 477.0,496.0 L 506.0,472.0 L 507.0,434.0 L 502.0,429.0 L 335.0,429.0 L 327.0,422.0 L 326.0,419.0 L 326.0,343.0 L 371.0,304.0 L 381.0,306.0 L 388.0,315.0 L 388.0,325.0 L 346.0,377.0 L 346.0,395.0 L 349.0,396.0 L 392.0,346.0 L 402.0,329.0 L 402.0,314.0 L 400.0,308.0 L 391.0,296.0 L 379.0,291.0 L 379.0,277.0 L 430.0,247.0 L 432.0,247.0 L 436.0,253.0 L 444.0,259.0 L 450.0,261.0 L 463.0,261.0 L 472.0,257.0 L 483.0,243.0 L 485.0,233.0 L 484.0,225.0 L 478.0,213.0 L 471.0,207.0 L 464.0,204.0 L 454.0,203.0 L 446.0,205.0 L 434.0,214.0 L 430.0,221.0 L 427.0,233.0 L 373.0,263.0 L 367.0,269.0 L 365.0,274.0 L 365.0,289.0 L 327.0,322.0 L 326.0,321.0 L 327.0,278.0 L 432.0,181.0 L 442.0,185.0 L 451.0,186.0 L 460.0,184.0 L 471.0,176.0 L 476.0,167.0 L 477.0,152.0 L 472.0,139.0 Z M 157.0,241.0 L 164.0,241.0 L 168.0,243.0 L 175.0,252.0 L 175.0,261.0 L 173.0,265.0 L 168.0,270.0 L 163.0,272.0 L 157.0,272.0 L 151.0,269.0 L 145.0,259.0 L 145.0,253.0 L 148.0,247.0 Z M 453.0,217.0 L 460.0,217.0 L 466.0,220.0 L 472.0,230.0 L 472.0,235.0 L 469.0,242.0 L 460.0,248.0 L 453.0,248.0 L 447.0,245.0 L 441.0,234.0 L 443.0,224.0 L 448.0,219.0 Z M 204.0,162.0 L 214.0,163.0 L 222.0,172.0 L 221.0,184.0 L 212.0,192.0 L 202.0,192.0 L 193.0,183.0 L 192.0,177.0 L 195.0,168.0 Z M 445.0,141.0 L 456.0,142.0 L 464.0,152.0 L 463.0,164.0 L 455.0,172.0 L 447.0,173.0 L 442.0,171.0 L 434.0,161.0 L 434.0,152.0 L 436.0,148.0 Z M 289.0,103.0 L 299.0,104.0 L 306.0,110.0 L 308.0,115.0 L 308.0,123.0 L 306.0,127.0 L 297.0,134.0 L 285.0,132.0 L 278.0,123.0 L 279.0,111.0 Z M 368.0,86.0 L 376.0,85.0 L 381.0,87.0 L 386.0,91.0 L 389.0,98.0 L 387.0,110.0 L 378.0,117.0 L 369.0,117.0 L 365.0,115.0 L 358.0,107.0 L 358.0,96.0 L 360.0,92.0 Z"/>
  </g>
</svg>
